<?xml version="1.0" encoding="utf-8"?>
<!-- Generator: Adobe Illustrator 27.9.0, SVG Export Plug-In . SVG Version: 6.00 Build 0)  -->
<svg version="1.1" id="Layer_2_00000098211297789185267170000008993205496459571607_"
	 xmlns="http://www.w3.org/2000/svg" xmlns:xlink="http://www.w3.org/1999/xlink" x="0px" y="0px" viewBox="0 0 711.4 158.9"
	 style="enable-background:new 0 0 711.4 158.9;" xml:space="preserve">
<style type="text/css">
	.st0{fill:#FFFFFF;}
	.st1{fill:#FFA500;}
	.st2{enable-background:new    ;}
</style>
<g>
	<g>
		<g>
			<path class="st0" d="M104.8,4.6c1.7,3.6,2.5,7.4,2.5,11.5c0,6.2-2,11.9-5.8,16.5c17.6,8.4,29.8,26.3,29.8,47.1
				c0,28.7-23.4,52.1-52.1,52.1s-52.1-23.4-52.1-52.1c0-20.8,12.2-38.7,29.8-47.1c-3.6-4.6-5.4-10.2-5.4-16.4c0-4.1,0.8-8,2.4-11.6
				C22.6,15.1,0,44.7,0,79.6c0,43.8,35.5,79.3,79.3,79.3s79.3-35.5,79.3-79.3C158.6,44.8,136.1,15.2,104.8,4.6z"/>
		</g>
		<g>
			<path class="st1" d="M63.2,16.1c0-4.4,1.5-8.2,4.5-11.4C70.7,1.6,74.4,0,79,0s8.5,1.6,11.8,4.8c3.3,3.2,4.9,6.9,4.9,11.4
				s-1.6,8-4.9,10.9s-7.2,4.3-11.8,4.3s-8.4-1.4-11.4-4.3C64.7,24.2,63.2,20.5,63.2,16.1z"/>
		</g>
		<g>
			<rect x="69.4" y="43.1" class="st0" width="20.2" height="89.4"/>
		</g>
	</g>
	<g>
		<g class="st2">
			<path class="st0" d="M220.8,72.3h-23.7v-6.1h7.8V18.5h-7.8v-6.1h23.7v6.1H213v47.7h7.8V72.3z"/>
			<path class="st0" d="M291.1,72.3h-8V20.6l-16.7,35.1h-4.8l-16.5-35.1v51.6h-7.4V12.4h10.9l16,33.4L280,12.4h11.1V72.3z"/>
			<path class="st0" d="M357.7,72.3h-8.5l-5.9-16.7h-25.9l-5.9,16.7h-8.1l21.8-59.9h10.6L357.7,72.3z M340.9,48.7l-10.5-29.4
				l-10.5,29.4H340.9z"/>
			<path class="st0" d="M420.1,67.9c-3.3,1.5-6.8,2.8-10.7,3.9s-7.6,1.7-11.3,1.7c-4.7,0-9-0.6-12.8-1.9c-3.9-1.3-7.2-3.2-9.9-5.8
				c-2.8-2.6-4.9-5.9-6.4-9.8c-1.5-3.9-2.3-8.5-2.3-13.7c0-9.6,2.8-17.1,8.4-22.7c5.6-5.5,13.3-8.3,23-8.3c3.4,0,6.9,0.4,10.4,1.2
				s7.4,2.2,11.5,4.2v9.5h-0.7c-0.8-0.6-2-1.5-3.6-2.5c-1.6-1-3.1-1.9-4.7-2.6c-1.9-0.8-4-1.5-6.3-2.1c-2.3-0.5-5-0.8-8-0.8
				c-6.7,0-12,2.2-15.9,6.5c-3.9,4.3-5.9,10.1-5.9,17.5c0,7.8,2,13.8,6.1,18.1c4.1,4.3,9.6,6.5,16.7,6.5c2.6,0,5.1-0.3,7.7-0.8
				c2.6-0.5,4.8-1.2,6.7-2V49.1h-16.1v-7h24V67.9z"/>
			<path class="st0" d="M458.5,72.3h-23.7v-6.1h7.8V18.5h-7.8v-6.1h23.7v6.1h-7.8v47.7h7.8V72.3z"/>
			<path class="st0" d="M521.1,72.3h-9.9l-28.4-53.6v53.6h-7.4V12.4h12.4l25.9,48.9V12.4h7.4V72.3z"/>
			<path class="st0" d="M587.5,72.3h-8.5l-5.9-16.7h-25.9l-5.9,16.7h-8.1l21.8-59.9h10.6L587.5,72.3z M570.7,48.7l-10.5-29.4
				l-10.5,29.4H570.7z"/>
		</g>
		<g class="st2">
			<path class="st0" d="M649.5,72.3h-10.3l-20-23.8h-11.2v23.8h-8V12.4h16.8c3.6,0,6.6,0.2,9.1,0.7s4.6,1.3,6.5,2.5
				c2.2,1.4,3.9,3.1,5.1,5.2c1.2,2.1,1.8,4.7,1.8,7.9c0,4.3-1.1,7.9-3.3,10.8c-2.2,2.9-5.2,5.1-9,6.6L649.5,72.3z M630.9,29.2
				c0-1.7-0.3-3.2-0.9-4.6c-0.6-1.3-1.6-2.4-3-3.4c-1.2-0.8-2.5-1.3-4.1-1.6c-1.6-0.3-3.4-0.5-5.6-0.5h-9.4v22.6h8.1
				c2.5,0,4.7-0.2,6.6-0.7c1.9-0.4,3.5-1.3,4.8-2.5c1.2-1.1,2.1-2.4,2.7-3.9C630.6,33.3,630.9,31.5,630.9,29.2z"/>
		</g>
		<g class="st2">
			<path class="st0" d="M702.2,12.4L681.1,46v26.3h-8V46.8L652,12.4h8.8l16.4,26.8l16.5-26.8H702.2z"/>
		</g>
		<g class="st2">
			<path class="st0" d="M241.7,118.4c0,5.3-2.3,9.6-6.8,13c-4.5,3.3-10.6,5-18.4,5c-4.5,0-8.4-0.4-11.7-1.2c-3.3-0.8-6.4-1.8-9.3-3
				v-12.9h1.5c2.9,2.3,6.1,4.1,9.7,5.3c3.6,1.2,7,1.8,10.3,1.8c0.8,0,2-0.1,3.3-0.2c1.4-0.1,2.5-0.4,3.4-0.7c1.1-0.4,1.9-1,2.6-1.6
				c0.7-0.7,1-1.6,1-2.9c0-1.2-0.5-2.2-1.5-3.1c-1-0.9-2.5-1.5-4.4-2c-2-0.5-4.2-0.9-6.4-1.4c-2.3-0.4-4.4-1-6.4-1.6
				c-4.5-1.5-7.8-3.5-9.8-6c-2-2.5-3-5.7-3-9.4c0-5,2.3-9.1,6.8-12.3c4.5-3.2,10.3-4.8,17.4-4.8c3.6,0,7.1,0.3,10.5,1
				c3.5,0.7,6.5,1.6,9,2.6v12.4h-1.5c-2.2-1.7-4.8-3.2-8-4.4c-3.2-1.2-6.4-1.8-9.7-1.8c-1.2,0-2.3,0.1-3.5,0.2
				c-1.1,0.2-2.3,0.5-3.3,0.9c-0.9,0.4-1.8,0.9-2.4,1.6c-0.7,0.7-1,1.6-1,2.5c0,1.4,0.5,2.5,1.6,3.3s3.1,1.5,6.2,2.1
				c2,0.4,3.9,0.8,5.7,1.2c1.8,0.4,3.8,0.9,5.9,1.6c4.1,1.4,7.2,3.2,9.1,5.5C240.7,111.6,241.7,114.6,241.7,118.4z"/>
			<path class="st0" d="M306.7,108.4c0,8.6-2.5,15.4-7.4,20.5c-4.9,5.1-11.7,7.6-20.4,7.6c-8.7,0-15.5-2.5-20.4-7.6
				c-4.9-5.1-7.4-11.9-7.4-20.5c0-8.7,2.5-15.5,7.4-20.6c4.9-5,11.7-7.6,20.4-7.6c8.6,0,15.4,2.5,20.4,7.6
				C304.2,92.8,306.7,99.7,306.7,108.4z M288.2,122c1.4-1.6,2.4-3.6,3-5.8c0.7-2.2,1-4.9,1-7.9c0-3.2-0.4-6-1.1-8.3
				c-0.7-2.3-1.7-4.1-2.9-5.5c-1.2-1.4-2.7-2.5-4.3-3.2c-1.6-0.7-3.3-1-5-1c-1.8,0-3.4,0.3-5,0.9s-3,1.7-4.3,3.1
				c-1.2,1.4-2.2,3.2-3,5.6c-0.8,2.4-1.1,5.1-1.1,8.3c0,3.2,0.4,5.9,1.1,8.2c0.7,2.3,1.7,4.1,2.9,5.5c1.2,1.4,2.6,2.5,4.2,3.2
				c1.6,0.7,3.3,1,5.1,1c1.8,0,3.5-0.3,5.1-1C285.6,124.5,287,123.5,288.2,122z"/>
			<path class="st0" d="M359.2,135.3h-38.9v-54h13.9v43.5h25V135.3z"/>
			<path class="st0" d="M417.8,115.8c0,6.7-2,11.8-6.1,15.3s-10,5.3-17.9,5.3s-13.9-1.8-17.9-5.3c-4-3.6-6.1-8.6-6.1-15.3V81.4h14
				V115c0,3.7,0.8,6.5,2.4,8.4c1.6,1.8,4.1,2.8,7.6,2.8c3.5,0,6-0.9,7.6-2.6c1.6-1.8,2.4-4.6,2.4-8.5V81.4h14V115.8z"/>
			<path class="st0" d="M476,91.8h-16.8v43.5h-13.9V91.8h-16.8V81.4H476V91.8z"/>
			<path class="st0" d="M516.5,135.3h-31.6v-9.6h8.8V90.9h-8.8v-9.6h31.6v9.6h-8.8v34.8h8.8V135.3z"/>
			<path class="st0" d="M583.2,108.4c0,8.6-2.5,15.4-7.4,20.5c-4.9,5.1-11.7,7.6-20.4,7.6c-8.7,0-15.5-2.5-20.4-7.6
				c-4.9-5.1-7.4-11.9-7.4-20.5c0-8.7,2.5-15.5,7.4-20.6c4.9-5,11.7-7.6,20.4-7.6c8.6,0,15.4,2.5,20.4,7.6
				C580.8,92.8,583.2,99.7,583.2,108.4z M564.8,122c1.4-1.6,2.4-3.6,3-5.8s1-4.9,1-7.9c0-3.2-0.4-6-1.1-8.3
				c-0.7-2.3-1.7-4.1-2.9-5.5c-1.2-1.4-2.7-2.5-4.3-3.2s-3.3-1-5-1c-1.8,0-3.4,0.3-5,0.9c-1.6,0.6-3,1.7-4.3,3.1
				c-1.2,1.4-2.2,3.2-3,5.6c-0.8,2.4-1.1,5.1-1.1,8.3c0,3.2,0.4,5.9,1.1,8.2c0.7,2.3,1.7,4.1,2.9,5.5s2.6,2.5,4.2,3.2
				c1.6,0.7,3.3,1,5.1,1c1.8,0,3.5-0.3,5.1-1S563.6,123.5,564.8,122z"/>
			<path class="st0" d="M645.9,135.3h-13.4l-22.9-37v37h-12.8v-54h16.6l19.7,30.9V81.4h12.8V135.3z"/>
			<path class="st0" d="M705.8,118.4c0,5.3-2.3,9.6-6.8,13c-4.5,3.3-10.6,5-18.4,5c-4.5,0-8.4-0.4-11.7-1.2c-3.3-0.8-6.4-1.8-9.3-3
				v-12.9h1.5c2.9,2.3,6.1,4.1,9.7,5.3c3.6,1.2,7,1.8,10.3,1.8c0.8,0,2-0.1,3.3-0.2c1.4-0.1,2.5-0.4,3.4-0.7c1.1-0.4,1.9-1,2.6-1.6
				c0.7-0.7,1-1.6,1-2.9c0-1.2-0.5-2.2-1.5-3.1c-1-0.9-2.5-1.5-4.4-2c-2-0.5-4.2-0.9-6.4-1.4c-2.3-0.4-4.4-1-6.4-1.6
				c-4.5-1.5-7.8-3.5-9.8-6c-2-2.5-3-5.7-3-9.4c0-5,2.3-9.1,6.8-12.3c4.5-3.2,10.3-4.8,17.4-4.8c3.6,0,7.1,0.3,10.5,1s6.5,1.6,9,2.6
				v12.4h-1.5c-2.2-1.7-4.8-3.2-8-4.4c-3.2-1.2-6.4-1.8-9.7-1.8c-1.2,0-2.3,0.1-3.5,0.2s-2.3,0.5-3.3,0.9c-0.9,0.4-1.8,0.9-2.4,1.6
				c-0.7,0.7-1,1.6-1,2.5c0,1.4,0.5,2.5,1.6,3.3c1.1,0.8,3.1,1.5,6.2,2.1c2,0.4,3.9,0.8,5.7,1.2c1.8,0.4,3.8,0.9,5.9,1.6
				c4.1,1.4,7.2,3.2,9.1,5.5C704.8,111.6,705.8,114.6,705.8,118.4z"/>
		</g>
	</g>
</g>
</svg>
